<svg version="1.1"
     baseProfile="full"
     viewBox="0 0 100 100" width="100%" height="auto"
     xmlns="http://www.w3.org/2000/svg">

    <style>
        .smallLab {font: normal 5px sans-serif;}
    </style>

    <!-- arrowhead marker definition -->
    <marker id="arrow" viewBox="0 0 10 10" refX="5" refY="5"
            markerWidth="2.5" markerHeight="5"
            orient="auto-start-reverse">
        <path d="M 0 0 L 10 5 L 0 10 z" />
    </marker>
    <style>
        .smallLab {font: normal 5px sans-serif;}
    </style>

    <polyline points="33,10 33,56 80,56" fill="none" stroke="black" stroke-width="2"
              marker-start="url(#arrow)" marker-end="url(#arrow)"  />

    <polyline points="33,56 60,56" fill="none" stroke="black" stroke-width="2"
              marker-end="url(#arrow)" transform="rotate(135 33 56)"/>

    <polyline points="33,56 80,56" fill="none" stroke="black" stroke-width="2"
              marker-end="url(#arrow)" transform="rotate(-30 33 56)"/>

    <path d="M  33 56 54.6506 43.5 A12.5 12.5, 0, 0, 1, 58 56 Z" fill="none" stroke="black" stroke-width="1" />
    <text x="50" y="52" class="smallLab">γ</text>
    <text x="33" y="6" class="smallLab" text-anchor="middle">y</text>
    <g transform="rotate(135 33 56)">
    <text x="75" y="57.5" class="smallLab" transform="rotate(-135 65 57.5)">z⟂(a,b)</text>
    </g>
    <g transform="rotate(-30 33 56)">
        <text x="86" y="57.5" class="smallLab" transform="rotate(30 86 57.5)">b</text>
    </g>
    <text x="85" y="57.5" class="smallLab">x∥a</text>


    <rect x="33" y="46" width="10" height="10"
          style="stroke: #000000; fill:none;"
          transform="skewY(0)" />

</svg>